<svg width="357" height="481" viewBox="0 0 357 481" fill="none" xmlns="http://www.w3.org/2000/svg">
<rect y="97" width="357" height="296" rx="20" fill="#D5E9EC"/>
<path d="M251.207 133.256L209.196 142.785L193.629 116.406L207.786 111.702H192.166L189.035 151.428C187.971 164.933 189.23 178.518 192.76 191.596L202.503 227.724L205.349 226.57C206.744 226.003 208.337 226.676 208.901 228.069L213.568 239.609C214.107 240.943 213.516 242.463 212.221 243.079C211.076 243.627 210.357 244.782 210.595 246.025L215.545 271.838C215.697 272.633 215.478 273.425 214.994 274.031L230.028 329.748C222.713 343.287 207.889 350.805 193.501 354.982C174.914 360.378 154.722 362.982 154.722 362.982L152.395 342.531L125.162 342.766L123.764 366.236C123.764 366.236 107.072 361.148 89.9264 354.47C77.7161 349.715 64.0374 341.026 53 325.215L64.3146 273.446L62.176 272.307C61.125 271.743 60.5644 270.567 60.7868 269.397L65.7221 243.655C65.9567 242.418 65.3139 241.184 64.1654 240.666C62.834 240.066 62.2156 238.524 62.764 237.172L67.4342 225.625C67.9978 224.233 69.5881 223.563 70.9834 224.127L74.758 225.662L84.8297 179.572C82.9622 181.302 80.8479 181.793 78.7215 181.945C66.6056 182.819 58.0754 174.862 57.7708 161.61C57.3047 141.393 72.8082 96.6252 72.8082 96.6252C74.4899 89.5665 78.9164 83.1993 85.3476 78.4925L85.3415 78.4103L86.0452 77.9929C86.4077 77.7431 86.7703 77.4902 87.1419 77.2496L87.145 77.3349L115.788 60.2837L160.184 60.634L195.283 72.1345L195.271 72.3051C195.277 72.3082 195.28 72.3082 195.283 72.3082C205.288 76.5214 233.623 88.7378 249.19 100.5C261.48 109.78 266.336 129.326 251.207 133.256Z" fill="#E8F2F3"/>
<path d="M88.6955 104.452C88.4487 104.287 88.1075 104.354 87.943 104.604C87.0991 105.868 85.646 108.717 84.5218 111.008L80.7228 112.65L81.0001 113.25C81.0001 113.25 76.8294 114.694 75.9551 115.041C75.1996 115.343 73.3077 116.409 72.5522 116.61C72.5552 116.674 72.5644 116.741 72.5857 116.802L73.0305 117.945C73.1523 118.252 73.4996 118.401 73.8104 118.283L82.9346 114.758C82.9833 114.871 83.0686 114.968 83.1905 115.023C83.2636 115.059 83.3398 115.075 83.419 115.075C83.6231 115.075 83.8181 114.962 83.9125 114.764C83.946 114.694 87.4007 107.37 88.8478 105.204C89.0154 104.957 88.9483 104.619 88.6955 104.452ZM197.61 282.26C198.043 282.458 198.506 282.558 198.969 282.558C199.484 282.558 200.002 282.433 200.477 282.18L213.099 275.597C213.361 275.46 213.464 275.131 213.327 274.866C213.187 274.598 212.858 274.497 212.593 274.637L199.974 281.224C199.374 281.535 198.68 281.556 198.061 281.273C197.443 280.989 197.001 280.453 196.846 279.792C196.779 279.5 196.48 279.323 196.191 279.39C195.901 279.457 195.718 279.749 195.788 280.039C196.02 281.029 196.684 281.836 197.61 282.26ZM189.175 247.219C189.144 247.079 189.126 246.939 189.117 246.796L188.727 235.222C188.715 234.923 188.456 234.664 188.166 234.698C187.865 234.71 187.63 234.957 187.642 235.258L188.035 246.832C188.041 247.045 188.072 247.262 188.12 247.469L194.798 275.835C194.853 276.084 195.079 276.252 195.325 276.252C195.365 276.252 195.408 276.246 195.447 276.237C195.743 276.17 195.923 275.877 195.856 275.588L189.175 247.219ZM193.842 247.335C194.323 248.428 195.207 249.26 196.334 249.677C196.83 249.86 197.345 249.952 197.86 249.952C198.5 249.952 199.137 249.808 199.728 249.525L209.772 245.208C210.046 245.093 210.174 244.773 210.052 244.495C209.936 244.221 209.613 244.096 209.342 244.212L199.277 248.538C198.466 248.928 197.552 248.971 196.709 248.66C195.862 248.346 195.197 247.722 194.835 246.899L190.85 237.894C190.728 237.62 190.408 237.498 190.131 237.613C189.857 237.738 189.732 238.058 189.857 238.332L193.842 247.335ZM63.236 273.157L75.8546 279.743C76.3268 279.99 76.8477 280.118 77.3626 280.118C77.8256 280.118 78.2887 280.017 78.7243 279.819C79.6474 279.396 80.3085 278.589 80.5431 277.602C80.6101 277.309 80.4304 277.02 80.141 276.947C79.8454 276.88 79.553 277.059 79.486 277.352C79.3306 278.01 78.8858 278.552 78.2704 278.832C77.655 279.116 76.9574 279.097 76.3542 278.781L63.7387 272.197C63.4736 272.054 63.1416 272.161 63.0075 272.426C62.8674 272.691 62.971 273.02 63.236 273.157ZM80.8813 273.8C80.9239 273.806 80.9635 273.815 81.0062 273.815C81.2499 273.815 81.4753 273.644 81.5332 273.391L88.2141 245.029C88.2629 244.818 88.2903 244.608 88.2964 244.395L88.6894 232.818C88.6985 232.52 88.467 232.267 88.1654 232.261C87.8821 232.239 87.617 232.48 87.6048 232.782L87.2118 244.355C87.2088 244.498 87.1875 244.642 87.157 244.782L80.4761 273.145C80.409 273.437 80.5888 273.726 80.8813 273.8ZM82.4928 244.898L86.4746 235.889C86.5995 235.615 86.4746 235.295 86.2004 235.176C85.9232 235.054 85.6063 235.179 85.4814 235.453L81.4997 244.456C81.1341 245.284 80.4669 245.909 79.6261 246.22C78.7792 246.53 77.8683 246.488 77.0366 246.089L66.9893 241.775C66.7151 241.659 66.3952 241.781 66.2795 242.055C66.1576 242.329 66.2856 242.649 66.5597 242.771L76.5827 247.076C77.1859 247.365 77.8287 247.508 78.4776 247.508C78.9894 247.508 79.5042 247.417 80.0008 247.234C81.1219 246.82 82.0084 245.991 82.4928 244.898ZM227.1 319.259C226.82 319.14 226.506 319.268 226.384 319.542C211.578 353.663 157.832 352.926 157.293 352.911C157.119 352.92 156.973 352.99 156.876 353.103L153.092 191.24L127.02 189.15L121.631 351.095C121.579 351.074 121.521 351.055 121.46 351.055C80.537 348.999 55.9945 318.565 55.7539 318.257C55.565 318.025 55.2268 317.983 54.9892 318.165C54.7577 318.354 54.715 318.696 54.9008 318.93C55.1476 319.241 79.9764 350.056 121.409 352.137C121.415 352.137 121.427 352.137 121.436 352.137C121.491 352.137 121.543 352.122 121.598 352.106L121.323 360.079C121.323 360.079 106.694 361.17 89.253 354.199L87.5683 421.231C87.5683 421.231 95.2241 426.684 104.708 429.207C110.265 438.048 121.668 437.003 126.033 426.861C129.342 424.622 132.336 421.179 134.725 416.131L136.279 305.352L142.033 244.343L147.124 304.304L148.678 415.089C152.102 422.319 156.763 426.252 161.826 428.086C168.922 432.933 177.302 431.306 183.801 426.489C190.78 423.784 195.837 420.186 195.837 420.186L194.192 354.775C175.356 360.378 157.049 360.195 157.049 360.195L156.894 353.831C156.988 353.931 157.126 353.992 157.272 353.998C157.296 353.998 157.445 354.001 157.707 354.001C162.935 354.001 213.004 353.103 227.381 319.969C227.502 319.695 227.374 319.378 227.1 319.259ZM65.2802 155.477C65.3716 155.532 65.4691 155.559 65.5666 155.559C65.7524 155.559 65.9291 155.465 66.0296 155.3C72.7807 144.431 77.981 142.74 78.0297 142.722C78.2308 142.667 78.3831 142.493 78.4136 142.283C78.4441 142.076 78.3527 141.865 78.176 141.75C74.9101 139.617 67.6961 143.766 67.3884 143.943C67.1325 144.092 67.0411 144.428 67.1934 144.683C67.3457 144.942 67.6778 145.034 67.9367 144.878C69.5879 143.922 73.8652 141.893 76.4608 142.265C74.441 143.389 70.2064 146.521 65.1066 154.728C64.9481 154.984 65.0274 155.319 65.2802 155.477ZM191.383 112.241C191.408 112.241 191.426 112.241 191.444 112.241C191.718 112.241 191.953 112.04 191.983 111.76L194.43 89.274C194.46 88.9785 194.244 88.7104 193.948 88.6769C193.647 88.6465 193.379 88.8628 193.348 89.1583L190.902 111.644C190.871 111.943 191.088 112.208 191.383 112.241ZM230.604 103.017C230.525 102.727 230.223 102.563 229.933 102.639C224.444 104.162 219.21 106.164 215.21 107.848C217.684 103.766 223.63 99.8179 223.688 99.7783C223.941 99.6169 224.008 99.2787 223.847 99.0258C223.682 98.7791 223.344 98.706 223.094 98.8735C222.817 99.0533 216.316 103.358 213.936 107.876C213.848 108.046 213.866 108.232 213.949 108.388C210.253 109.987 207.877 111.193 207.825 111.221C207.557 111.355 207.457 111.684 207.591 111.949C207.685 112.138 207.877 112.241 208.072 112.241C208.16 112.241 208.243 112.223 208.322 112.184C208.428 112.129 218.786 106.858 230.229 103.681C230.512 103.605 230.683 103.306 230.604 103.017ZM165.564 138.923C165.54 138.932 165.516 138.926 165.488 138.932C165.47 138.932 165.452 138.941 165.427 138.941C165.421 138.941 165.412 138.941 165.406 138.941L158.758 138.667C158.533 138.843 158.244 138.947 157.927 138.935L155.627 138.862L162.107 141.805C162.314 141.899 162.551 141.914 162.774 141.85L169.001 140.114C168.48 139.306 167.456 138.435 165.564 138.923ZM164.215 126.529L164.839 128.33L165.942 125.817C166.064 125.542 166.384 125.414 166.661 125.533C166.932 125.655 167.06 125.975 166.941 126.249L166.192 127.958C166.874 127.73 167.636 127.812 168.267 128.239L169.019 128.75C169.263 128.915 169.433 129.18 169.479 129.472C169.491 129.57 169.473 129.67 169.458 129.768C170.137 129.826 170.798 130.228 171.368 130.974C171.691 131.41 171.669 132.028 171.31 132.44L166.734 137.719C168.544 137.783 169.537 138.947 169.918 139.538C170.104 139.827 170.14 140.181 170.015 140.501C169.896 140.824 169.625 141.067 169.293 141.159L163.73 142.712C164.544 143.508 164.742 144.507 164.446 145.214C164.2 145.805 163.608 146.167 162.99 146.167C162.832 146.167 162.67 146.146 162.512 146.097L156.346 143.815C156.062 143.715 155.919 143.401 156.026 143.121C156.126 142.837 156.443 142.697 156.72 142.801L162.865 145.07C163.081 145.137 163.35 145.022 163.444 144.796C163.615 144.394 163.383 143.587 162.356 143.038C162.311 143.014 162.277 142.977 162.244 142.944C162.043 142.917 161.848 142.877 161.665 142.795L153.153 138.932C153.074 138.898 153.013 138.84 152.961 138.776H152.906C152.178 138.749 151.636 138.158 151.745 137.506L152.242 134.527C152.352 133.872 153.062 133.451 153.768 133.628L155.913 134.161L156.175 127.322C156.187 127.023 156.458 126.782 156.742 126.804C157.04 126.816 157.275 127.066 157.26 127.364L156.988 134.429L158.612 134.831C159.209 134.98 159.587 135.507 159.496 136.062L159.237 137.603L165.19 137.847L170.491 131.73C169.598 130.438 168.897 130.895 168.65 131.072L166.515 133.786C166.134 134.271 165.552 134.554 164.943 134.554C164.9 134.554 164.864 134.548 164.821 134.548L160.611 134.292C159.612 134.234 158.847 133.405 158.871 132.412L159.03 125.235C159.036 124.933 159.255 124.696 159.587 124.705C159.883 124.711 160.12 124.961 160.117 125.256L159.956 132.434C159.947 132.848 160.263 133.189 160.675 133.21L164.885 133.466C165.187 133.482 165.476 133.354 165.662 133.116L168.404 129.631L167.657 129.134C167.145 128.787 166.463 128.851 166.03 129.293L165.141 130.197C165.077 130.261 165.004 130.307 164.915 130.338L163.112 130.895C162.823 130.986 162.521 130.828 162.433 130.542C162.344 130.258 162.503 129.954 162.789 129.862L164.081 129.457L163.188 126.883C163.091 126.603 163.24 126.292 163.523 126.194C163.81 126.097 164.117 126.243 164.215 126.529ZM101.253 109.539C100.997 109.384 100.662 109.463 100.504 109.716L95.5714 117.646C95.416 117.902 95.4891 118.237 95.745 118.395C95.8364 118.45 95.9339 118.472 96.0314 118.472C96.2112 118.472 96.3939 118.383 96.4945 118.219L101.427 110.289C101.585 110.033 101.509 109.698 101.253 109.539ZM100.092 122.197C100.175 122.246 100.266 122.264 100.354 122.264C100.546 122.264 100.729 122.164 100.83 121.987L104.147 115.973C104.293 115.711 104.196 115.379 103.931 115.233C103.672 115.09 103.343 115.184 103.194 115.449L99.8791 121.46C99.7359 121.722 99.8304 122.054 100.092 122.197ZM91.1449 113.944C91.3124 113.944 91.4769 113.865 91.5835 113.722L94.2188 110.118L105.14 105.573L107.538 103.446C107.766 103.245 107.602 102.871 107.3 102.898L104.007 103.19L97.0977 106.182L97.4785 105.658C97.6552 105.417 97.5973 105.079 97.3566 104.903C97.116 104.723 96.7748 104.781 96.595 105.021L90.7062 113.079C90.5295 113.326 90.5813 113.664 90.825 113.841C90.9194 113.911 91.0321 113.944 91.1449 113.944ZM184.398 120.619C184.523 120.619 184.641 120.561 184.736 120.446C184.797 120.379 186.201 118.727 188.763 119.934C189.016 120.056 189.303 119.885 189.397 119.559C189.485 119.227 189.357 118.868 189.101 118.749C185.942 117.259 184.13 119.44 184.06 119.532C183.865 119.778 183.855 120.171 184.044 120.424C184.139 120.555 184.27 120.619 184.398 120.619ZM177.025 138.935L182.046 138.776C182.771 138.749 183.313 138.158 183.203 137.506L182.704 134.527C182.594 133.872 181.887 133.451 181.184 133.628L176.34 134.831C175.74 134.98 175.365 135.507 175.456 136.062L175.779 137.999C175.874 138.551 176.407 138.956 177.025 138.935ZM111.937 128.083C110.176 128.153 108.802 129.509 108.866 131.114C108.933 132.714 110.414 133.954 112.175 133.884C113.942 133.814 115.316 132.455 115.246 130.852C115.182 129.25 113.701 128.01 111.937 128.083ZM111.858 126.146C115.337 126.002 118.259 128.455 118.39 131.614C118.518 134.779 115.803 137.454 112.33 137.597C108.851 137.741 105.932 135.288 105.798 132.129C105.67 128.97 108.385 126.289 111.858 126.146ZM209.181 473.082C203.779 473.082 192.291 468.458 192.291 468.458L165.619 473.079L166.606 481H213.595C215.932 481 217.181 478.197 215.569 476.506C213.866 474.721 211.636 473.082 209.181 473.082ZM93.6369 468.458C93.6369 468.458 81.4905 473.082 75.7784 473.082C73.2437 473.082 70.9406 474.639 69.1614 476.369C67.4188 478.06 68.5704 481 71.0015 481H120.802L121.847 473.079L93.6369 468.458ZM115.788 60.2837L103.352 67.6867C105.061 39.2325 112.754 -2.4647 135.493 0.62443C151.039 -4.00927 164.791 17.6177 164.145 49.8251C164.062 53.8526 163.956 57.8587 163.91 61.8557L160.184 60.6341L156.3 73.9289C152.55 86.7729 150.935 120.302 151.502 134.932C144.982 134.883 136.863 133.835 129.141 130.359L129.302 125.561C129.701 113.302 127.563 90.2337 122.987 78.59L115.788 60.2837Z" fill="#003A70"/>
<path d="M88.6954 104.452C88.4486 104.287 88.1074 104.354 87.9429 104.604C87.0991 105.868 85.6459 108.717 84.5217 111.008L80.7228 112.65L80.61 112.4C80.671 112.385 73.5361 114.246 71.9398 116.031C71.9398 116.031 71.8819 116.522 72.2901 116.641C72.3449 116.653 72.4363 116.644 72.5521 116.61C72.5551 116.674 72.5643 116.741 72.5856 116.802L73.0304 117.945C73.1523 118.252 73.4996 118.402 73.8103 118.283L82.9345 114.758C82.9833 114.871 83.0686 114.968 83.1904 115.023C83.2635 115.06 83.3397 115.075 83.4189 115.075C83.623 115.075 83.818 114.962 83.9124 114.764C83.9459 114.694 87.4007 107.37 88.8477 105.204C89.0153 104.957 88.9483 104.619 88.6954 104.452ZM89.5728 151.986L54.98 83.5223L76.9756 76.7835L93.6124 109.11L90.7061 113.079C90.5294 113.326 90.5812 113.664 90.8249 113.841C90.9193 113.911 91.0321 113.945 91.1448 113.945C91.3123 113.945 91.4768 113.865 91.5835 113.722L94.1638 110.188L96.9057 115.504L95.5713 117.646C95.416 117.902 95.4891 118.237 95.745 118.395C95.8364 118.45 95.9339 118.472 96.0313 118.472C96.2111 118.472 96.3939 118.383 96.4944 118.219L97.4815 116.632L99.9247 121.378L99.8791 121.46C99.7359 121.722 99.8303 122.054 100.092 122.197C100.175 122.246 100.266 122.264 100.354 122.264C100.363 122.264 100.366 122.261 100.379 122.261L105.923 133.034C106.127 133.954 106.566 134.789 107.188 135.489L120.272 160.915H94.6269C96.3786 157.433 98.0268 153.89 99.1601 151.404C100.214 149.086 99.419 146.338 97.2865 144.942C96.9026 144.696 96.5066 144.467 96.1045 144.248L96.1136 145.942C96.1197 146.935 95.7633 147.891 95.1174 148.647C94.0755 149.866 92.0008 151.255 89.5728 151.986ZM120.449 59.7385C121.6 63.6867 125.463 68.3996 127.657 70.8551C128.022 71.2633 128.528 71.4857 129.061 71.4857C129.189 71.4857 129.317 71.4735 129.445 71.4491C130.106 71.3151 130.63 70.8551 130.85 70.2184C132.224 66.1818 135.904 61.5999 135.94 61.5542C136.129 61.3196 136.093 60.9784 135.858 60.7895C135.623 60.6037 135.285 60.6402 135.093 60.8748C134.941 61.0637 131.258 65.6486 129.82 69.8711C129.725 70.1391 129.512 70.328 129.229 70.3859C128.943 70.4407 128.662 70.3494 128.47 70.1331C126.332 67.7477 122.588 63.181 121.491 59.4338C121.409 59.1474 121.107 58.9799 120.818 59.0652C120.531 59.1474 120.367 59.449 120.449 59.7385ZM116.33 61.6638L120.272 59.1231L123.995 49.8252L134.073 57.9563C134.834 58.5747 135.468 59.3333 135.934 60.1893L140.638 68.8809L141.936 62.0599C142.015 61.6395 142.176 61.2495 142.377 60.8778C142.393 60.9997 142.448 61.1216 142.551 61.2129C142.585 61.2404 145.89 64.1833 147.319 68.4087C147.541 69.0668 148.135 69.5116 148.836 69.542C148.863 69.542 148.888 69.542 148.915 69.542C149.592 69.542 150.204 69.1521 150.478 68.5276C151.298 66.6783 152.126 63.6654 151.389 59.8329C151.328 59.5404 151.045 59.3455 150.752 59.4003C150.454 59.4612 150.262 59.7415 150.32 60.034C151.005 63.5953 150.244 66.3828 149.485 68.0889C149.36 68.3783 149.092 68.4727 148.885 68.4605C148.787 68.4575 148.467 68.4118 148.346 68.0584C146.819 63.5557 143.413 60.5244 143.27 60.3995C143.118 60.2655 142.917 60.2411 142.74 60.3021C143.072 59.8694 143.486 59.5069 143.992 59.2693C147.523 57.612 149.485 51.9181 149.485 51.9181L150.591 58.8885L158.332 61.0423C157.007 60.1071 156.032 59.5953 156.007 59.5831C155.602 59.382 155.447 58.8885 155.648 58.4924C155.855 58.0934 156.346 57.9319 156.748 58.133C157.062 58.2944 164.461 62.1238 166.844 68.8444C167.931 71.9061 168.267 89.1675 168.33 93.0883C170.6 93.2254 172.842 93.9352 174.786 95.23C176.824 96.5918 178.161 98.1119 178.759 99.7601C180.58 104.79 178.433 114.569 178.338 114.983C178.256 115.361 177.921 115.62 177.543 115.62C177.488 115.62 177.427 115.614 177.366 115.602C176.928 115.504 176.65 115.069 176.751 114.63C176.772 114.536 178.893 104.9 177.226 100.315C176.751 99.0046 175.624 97.7464 173.878 96.5796C170.079 94.0479 164.973 94.051 161.174 96.5796C159.423 97.7494 158.298 99.0046 157.823 100.315C156.16 104.9 158.28 114.536 158.301 114.63C158.399 115.069 158.122 115.504 157.686 115.602C157.244 115.696 156.809 115.422 156.711 114.983C156.62 114.569 154.466 104.79 156.294 99.7601C156.888 98.118 158.228 96.5918 160.266 95.23C162.201 93.9383 164.434 93.2284 166.701 93.0883C166.597 86.648 166.192 71.8787 165.308 69.3897C164.206 66.2762 161.826 63.8055 159.752 62.1178L156.3 73.929C152.419 87.2147 150.822 122.661 151.569 136.391L153.129 199.968L126.761 200.239L129.302 125.561C129.701 113.302 127.562 90.2337 122.987 78.5901L116.33 61.6638ZM184.044 120.424C184.139 120.555 184.27 120.619 184.398 120.619C184.504 120.619 184.602 120.571 184.69 120.482C184.349 120.101 184.081 119.846 183.95 119.727C183.871 119.958 183.901 120.232 184.044 120.424ZM184.011 119.623L188.989 118.703C185.9 117.32 184.13 119.443 184.059 119.532C184.035 119.559 184.026 119.593 184.011 119.623ZM189.074 118.737C189.19 118.886 189.29 119.05 189.403 119.206C189.369 119.002 189.266 118.822 189.101 118.749C189.092 118.743 189.08 118.74 189.074 118.737ZM182.463 121.095C182.463 118.813 184.321 116.954 186.612 116.954C188.903 116.954 192.446 121.442 192.434 121.582C194.887 127.008 192.389 133.451 192.389 133.451L187.337 133.896C188.279 130.322 185.863 127.715 185.159 125.469C184.937 125.509 182.463 123.386 182.463 121.095ZM134.454 411.028C134.195 410.876 133.863 410.961 133.713 411.22C130.414 416.817 125.805 420.357 120.007 421.743C105.734 425.164 88.7259 414.462 88.5553 414.352C88.3055 414.191 87.9703 414.261 87.8089 414.517C87.6444 414.77 87.7175 415.105 87.9734 415.266C88.5796 415.653 101.067 423.513 113.908 423.513C116.028 423.513 118.167 423.3 120.257 422.8C126.353 421.341 131.194 417.633 134.649 411.769C134.801 411.516 134.713 411.181 134.454 411.028ZM111.245 131.035C111.273 131.465 111.629 131.797 112.059 131.797C112.074 131.797 112.092 131.794 112.111 131.794C112.559 131.769 112.903 131.383 112.872 130.932C112.845 130.554 110.45 93.0243 109.616 80.945C108.802 69.2313 116.906 60.1193 116.988 60.0279C117.29 59.6928 117.265 59.1809 116.93 58.8793C116.595 58.5777 116.083 58.6052 115.782 58.9372C115.428 59.3302 107.127 68.6372 107.989 81.0577C108.827 93.134 111.224 130.654 111.245 131.035ZM194.652 413.127C186.941 419.772 179.219 423.123 171.645 423.123C170.621 423.123 169.607 423.059 168.586 422.937C155.998 421.42 148.306 410.815 148.227 410.705C148.053 410.462 148.111 410.124 148.355 409.95C148.598 409.779 148.937 409.834 149.11 410.078C149.186 410.181 156.62 420.409 168.73 421.865C176.955 422.852 185.436 419.635 193.939 412.308C194.165 412.107 194.512 412.134 194.707 412.36C194.902 412.588 194.878 412.932 194.652 413.127Z" fill="#5FC0CC"/>
<path d="M95.7449 118.395C95.8363 118.45 95.9338 118.471 96.0313 118.471C96.211 118.471 96.3938 118.383 96.4943 118.219L101.427 110.289C101.585 110.033 101.509 109.698 101.253 109.539C100.997 109.384 100.662 109.463 100.504 109.716L95.5713 117.646C95.4159 117.902 95.489 118.237 95.7449 118.395ZM78.1606 147.416C77.7737 146.737 77.5696 145.975 77.5208 145.21C77.4843 144.613 77.5269 144.004 77.7036 143.422L77.8925 142.773C77.9717 142.746 78.0266 142.725 78.0296 142.721C78.2307 142.667 78.383 142.493 78.4135 142.283C78.4439 142.085 78.3525 141.893 78.1941 141.771L80.4973 134.024L82.6785 126.691L81.9047 115.154L82.9344 114.758C82.9832 114.871 83.0685 114.968 83.1903 115.023C83.2635 115.059 83.3396 115.075 83.4188 115.075C83.6229 115.075 83.8179 114.962 83.9124 114.764C83.9459 114.694 87.4006 107.37 88.8477 105.204C88.9939 104.991 88.9512 104.71 88.7776 104.534L90.313 102.703L91.2056 101.637C92.144 100.522 93.7403 100.208 95.0229 100.893C95.8485 101.338 96.6314 101.999 96.9361 102.986C97.2864 104.11 97.3717 104.653 97.3687 104.912C97.3656 104.912 97.3595 104.902 97.3565 104.902C97.1158 104.723 96.7746 104.781 96.5949 105.021L90.706 113.079C90.5293 113.326 90.5811 113.664 90.8248 113.841C90.9193 113.911 91.032 113.944 91.1447 113.944C91.3123 113.944 91.4768 113.865 91.5834 113.722L94.2186 110.118L101.11 107.251C101.417 107.821 101.506 108.537 101.186 109.436C101.186 109.436 105.256 110.596 104.967 112.458C104.729 113.972 104.15 114.934 103.943 115.245C103.94 115.242 103.937 115.236 103.931 115.233C103.672 115.09 103.343 115.184 103.194 115.449L99.879 121.46C99.7358 121.722 99.8302 122.054 100.092 122.197C100.174 122.246 100.266 122.264 100.354 122.264C100.546 122.264 100.729 122.164 100.829 121.987L104.147 115.973C104.257 115.775 104.229 115.541 104.098 115.376C104.927 115.437 107.675 115.763 107.526 117.393C107.419 118.596 105.159 124.248 103.489 128.299C103.367 128.598 103.248 128.884 103.13 129.165C102.225 131.355 100.567 133.146 98.4563 134.234L97.914 134.511C96.7777 135.096 96.0648 136.266 96.0739 137.542L96.1044 144.248L96.1135 145.942C96.1196 146.935 95.7632 147.891 95.1173 148.647C92.4547 151.757 83.0563 156.032 78.1606 147.416ZM81.7067 112.223L84.5217 111.008C85.6458 108.717 87.099 105.868 87.9429 104.604C88.0982 104.369 88.3998 104.305 88.6405 104.43C88.6832 103.809 88.7349 102.188 88.3785 99.3274C88.3541 99.1141 88.3115 98.9222 88.2719 98.7333C88.0525 97.7462 87.6413 97.0638 87.1721 96.5947C86.77 96.1956 86.3313 95.9397 85.9413 95.7904C85.3808 95.5741 84.7593 95.9062 84.6344 96.4972L81.7829 110.334C81.6793 110.819 81.6458 111.315 81.6793 111.806L81.7067 112.223ZM97.0975 106.182L98.6695 105.496C98.2186 105.344 97.8165 105.247 97.5515 105.192C97.5941 105.35 97.5789 105.521 97.4783 105.658L97.0975 106.182ZM159.273 124.104L157.168 125.847L156.76 126.807C157.049 126.828 157.275 127.072 157.259 127.364L156.934 135.931C156.897 136.799 157.576 137.536 158.451 137.57L165.189 137.847L170.49 131.73C169.598 130.438 168.897 130.895 168.65 131.072L166.515 133.786C166.134 134.271 165.552 134.554 164.943 134.554C164.9 134.554 164.864 134.548 164.821 134.548L160.611 134.292C159.611 134.234 158.847 133.405 158.871 132.412L159.029 125.235C159.036 124.933 159.255 124.695 159.587 124.705C159.883 124.711 160.12 124.96 160.117 125.256L159.956 132.433C159.946 132.848 160.263 133.189 160.675 133.21L164.885 133.466C165.186 133.481 165.476 133.354 165.662 133.116L168.404 129.631L167.657 129.134C167.145 128.787 166.463 128.851 166.03 129.293L165.141 130.197C165.077 130.261 165.004 130.307 164.915 130.338L163.112 130.895C162.822 130.986 162.521 130.828 162.432 130.542C162.344 130.258 162.502 129.954 162.789 129.862L164.081 129.457L163.188 126.883C163.09 126.603 163.24 126.292 163.523 126.194C163.809 126.097 164.117 126.243 164.215 126.529L164.839 128.33L165.942 125.817C166.064 125.542 166.384 125.414 166.661 125.533C166.932 125.655 167.06 125.975 166.941 126.249L166.192 127.958C166.874 127.73 167.636 127.812 168.266 128.238L169.019 128.75C169.263 128.915 169.433 129.18 169.479 129.472C169.491 129.57 169.473 129.67 169.458 129.768C170.137 129.826 170.798 130.228 171.368 130.974C171.691 131.41 171.669 132.028 171.31 132.44L166.734 137.719C168.544 137.783 169.537 138.947 169.918 139.538C170.103 139.827 170.14 140.181 170.015 140.501C169.896 140.824 169.625 141.067 169.293 141.159L163.73 142.712C164.44 143.41 164.678 144.26 164.528 144.936L173.762 142.045L176.736 138.898L181.019 134.353L182.573 134.207L187.368 133.753C189.467 125.53 185.126 120.832 184.087 119.852L183.922 119.882L182.771 120.11L182.594 120.12L176.714 120.412L175.578 120.467L163.73 121.061C162.469 121.122 161.299 121.719 160.504 122.7L160.129 123.169L159.572 123.858L159.273 124.104ZM153.604 137.945L162.106 141.804C162.314 141.899 162.551 141.914 162.774 141.85L169.001 140.114C168.48 139.306 167.456 138.435 165.564 138.923C165.54 138.932 165.515 138.926 165.488 138.932C165.47 138.932 165.451 138.941 165.427 138.941C165.421 138.941 165.412 138.941 165.406 138.941L158.405 138.657C156.937 138.593 155.788 137.354 155.846 135.891L156.141 128.205C155.617 129.399 154.682 131.608 153.972 133.68C153.36 135.477 152.924 137.162 153.086 137.99C153.235 137.893 153.427 137.862 153.604 137.945ZM156.038 143.523L154.941 144.473C154.058 145.244 154.14 146.642 155.112 147.3C155.48 147.547 155.943 147.617 156.367 147.483L161.732 145.808L156.346 143.815C156.199 143.763 156.093 143.654 156.038 143.523ZM156.026 143.121C156.126 142.837 156.443 142.697 156.72 142.801L162.865 145.07C163.081 145.137 163.349 145.022 163.444 144.796C163.614 144.394 163.383 143.587 162.356 143.038C162.311 143.014 162.277 142.977 162.244 142.944C162.042 142.916 161.847 142.877 161.665 142.795L153.153 138.932C153.01 138.868 152.912 138.746 152.866 138.609C152.851 138.657 152.833 138.706 152.818 138.755C152.571 139.587 152.394 140.948 153.588 141.646C154.831 142.371 155.639 142.877 156.026 143.121ZM202.987 132.272L194.451 117.804L191.642 118.359L189.976 118.688L189.217 118.837L189.15 118.849C193.141 124.071 192.529 132.053 192.407 133.274L202.987 132.272ZM123.709 41.4229C123.681 41.4289 123.657 41.4381 123.629 41.4442C124.22 44.2591 124.793 47.6346 124.906 50.5593L134.073 57.9561C134.834 58.5746 135.468 59.3331 135.934 60.1892L140.638 68.8808L141.936 62.0597C142.015 61.6393 142.176 61.2494 142.377 60.8777C142.359 60.7254 142.396 60.57 142.502 60.4481C142.566 60.375 142.649 60.3324 142.74 60.3019C143.072 59.8693 143.486 59.5068 143.992 59.2691C145.107 58.7452 146.061 57.8221 146.85 56.8045C146.545 56.6126 146.253 56.4207 145.984 56.2288C144.452 57.1579 127.197 49.6301 123.709 41.4229ZM150.591 58.8883L150.962 58.9919C150.834 58.934 150.706 58.8731 150.579 58.8152L150.591 58.8883ZM186.012 461.801C184.002 457.764 183.529 443.458 183.764 426.501C177.251 429.015 169.065 430.742 161.738 428.052C163.31 448.625 164.787 466.477 165.643 473.082L184.635 474.24L192.114 468.589C189.787 467.032 187.56 464.908 186.012 461.801ZM104.464 429.14C104.281 443.306 103.51 454.858 101.637 458.474C99.7023 462.218 96.6588 465.585 93.6215 468.464C93.6276 468.461 93.6367 468.458 93.6367 468.458L101.737 474.24L121.847 473.079L121.329 477.015C122.082 474.718 124.162 452.518 126.402 426.599C119.663 431.382 111.538 431.062 104.464 429.14ZM121.323 360.079C121.323 360.079 121.277 360.082 121.238 360.085C121.287 360.082 121.323 360.079 121.323 360.079ZM102.642 358.285C103.09 358.382 103.538 358.473 103.976 358.562C103.538 358.473 103.09 358.382 102.642 358.285Z" fill="#E65A59"/>
<path d="M177.872 115.541C177.586 116.872 177.199 118.56 176.715 120.412L175.578 120.467C176.081 118.578 176.504 116.759 176.839 115.197C176.949 115.392 177.129 115.55 177.367 115.602C177.427 115.614 177.488 115.62 177.543 115.62C177.662 115.62 177.769 115.587 177.872 115.541ZM158.134 115.306C158.622 117.585 159.301 120.382 160.13 123.169L159.572 123.858L159.273 124.105C158.283 120.851 157.534 117.673 157.068 115.492C157.245 115.602 157.464 115.648 157.686 115.602C157.872 115.556 158.024 115.45 158.134 115.306ZM153.778 27.5554C153.677 27.6438 153.552 27.6834 153.427 27.6834C153.275 27.6834 153.12 27.6194 153.013 27.4914C152.946 27.4153 151.283 25.5508 148.248 26.4526C147.956 26.5349 147.657 26.3703 147.575 26.084C147.49 25.7976 147.651 25.496 147.941 25.4107C151.676 24.3018 153.756 26.6902 153.842 26.7938C154.037 27.0192 154.009 27.3604 153.778 27.5554ZM151.325 34.1419C150.737 34.081 150.311 33.5631 150.369 32.9751C150.43 32.3932 150.947 31.9637 151.535 32.0216C152.117 32.0825 152.547 32.6034 152.486 33.1853C152.431 33.7733 151.907 34.1968 151.325 34.1419ZM147.383 37.621C147.219 37.9439 146.92 38.2212 146.585 38.4618C147.267 40.8168 147.429 42.276 147.051 42.7787C146.929 42.9463 146.691 43.26 144.175 43.26C142.981 43.26 141.263 43.19 138.789 42.995C138.493 42.9706 138.271 42.7086 138.292 42.4101C138.317 42.1115 138.576 41.8952 138.877 41.9105C141.884 42.1481 145.415 42.2699 146.195 42.0658C146.244 41.6667 145.969 40.308 145.613 39.0224C145.113 39.2509 144.684 39.3941 144.583 39.4245C144.532 39.4398 144.477 39.4458 144.428 39.4458C144.196 39.4458 143.977 39.2966 143.907 39.062C143.819 38.7787 143.98 38.474 144.266 38.3857C145.01 38.1572 146.164 37.621 146.411 37.1275C146.585 36.6004 145.677 33.557 144.723 31.0528C144.617 30.7695 144.757 30.4587 145.037 30.3521C145.318 30.2424 145.634 30.3856 145.738 30.6659C146.567 32.8411 147.883 36.6309 147.383 37.621ZM144.181 46.7879C144.111 46.8092 143.036 47.1535 141.665 47.1535C140.937 47.1535 140.126 47.056 139.34 46.7635C139.057 46.663 138.914 46.3492 139.02 46.0689C139.121 45.7856 139.438 45.6424 139.715 45.749C141.625 46.4497 143.822 45.7643 143.846 45.7551C144.132 45.6668 144.437 45.8191 144.532 46.1055C144.62 46.3918 144.468 46.6965 144.181 46.7879ZM140.556 31.9972C140.498 32.5821 139.977 33.0086 139.389 32.9538C138.804 32.8929 138.378 32.3719 138.436 31.7839C138.493 31.2021 139.017 30.7786 139.602 30.8334C140.187 30.8944 140.617 31.4123 140.556 31.9972ZM136.12 27.5615C135.953 27.5615 135.788 27.4823 135.682 27.3391C135.505 27.0954 135.557 26.7572 135.797 26.5805C138.941 24.2835 141.707 25.8342 141.823 25.8981C142.085 26.0505 142.171 26.3795 142.024 26.6384C141.869 26.9004 141.537 26.9888 141.278 26.8395C141.193 26.7908 138.993 25.5904 136.443 27.4549C136.343 27.528 136.23 27.5615 136.12 27.5615ZM147.017 8.98711C146.953 8.94446 146.886 8.9079 146.822 8.86525C146.49 11.5888 145.397 16.1037 141.771 17.2949L143.886 7.34201C143.87 7.33592 143.861 7.33287 143.846 7.32373C143.084 9.90715 139.77 20.1982 134.521 22.7877V19.0253C134.521 19.0253 131.782 28.3871 124.141 30.2211C124.126 30.2241 124.111 30.2333 124.096 30.2363L124.818 38.2364C124.818 38.2364 122.81 33.2432 119.828 30.2668C117.857 31.0619 116.376 32.8959 116.151 35.1625C115.828 38.4131 118.201 41.3103 121.457 41.6332C122.21 41.7094 122.941 41.6332 123.63 41.4443C123.657 41.4382 123.681 41.4291 123.709 41.423C127.197 49.6302 132.888 56.6768 140.739 57.4262C142.713 57.6151 144.452 57.1581 145.985 56.2289C146.917 55.6653 147.779 54.9372 148.559 54.0415C148.928 53.6211 149.272 53.1611 149.607 52.6828C154.207 46.0598 155.758 33.9226 155.228 25.0664C151.039 19.729 148.318 12.8104 147.017 8.98711Z" fill="#F77457"/>
</svg>
