<svg width="305" height="370" viewBox="0 0 305 370" fill="none" xmlns="http://www.w3.org/2000/svg">
<path d="M116.449 332.329L98.7114 283.27L95.7239 280.75C97.5265 282.126 98.7114 283.27 98.7114 283.27C96.4285 277.173 90.7006 273.021 84.1583 272.725L20.4378 269.827C14.774 269.572 9.14674 271.381 4.91487 275.131C-3.25607 282.367 1.22742 289.613 1.22742 289.613L24.139 296.348C24.3037 297 24.4913 297.66 24.7292 298.307L44.5435 352.995L96.6709 357.264C106.942 358.108 116.604 362.441 124.034 369.532L122.922 359.871C121.843 350.475 119.669 341.233 116.449 332.329ZM304.22 359.78H149.622C149.622 359.78 149.96 347.007 150.509 328.57L144.237 310.16L151.164 307.23C151.63 292.698 152.166 276.731 152.742 261.502C153.383 244.659 156.452 225.493 160.327 207.516L150.981 222.057L137.26 176.529L137.539 192.105H77.0351L64.1061 51.6387L123.787 59.2942L132.777 153.084L147.161 136.356L166.545 181.897C171.774 162.503 177.003 147.502 179.304 143.291C184.438 133.913 195.66 132.409 195.66 132.409L206.302 131.999C207.098 129.634 207.564 128.313 207.564 128.313L221.628 122.662C249.444 111.489 281.18 123.596 294.411 150.35C295.084 151.708 295.747 153.084 296.406 154.469C302.765 167.949 294.018 229.649 299.659 277.296C305.373 325.608 304.22 359.78 304.22 359.78Z" fill="#E8F2F3"/>
<path d="M182.914 80.9128C182.722 80.7351 182.475 80.6348 182.209 80.6348C181.93 80.6348 181.656 80.7533 181.464 80.9583C180.32 82.1705 178.362 82.4257 176.916 82.4257C175.516 82.4257 174.4 82.1933 174.391 82.1887C174.318 82.175 174.244 82.1659 174.171 82.1659C173.691 82.1659 173.27 82.5031 173.169 82.9725C173.046 83.5193 173.398 84.0616 173.952 84.1846C174.084 84.212 175.306 84.4671 176.884 84.4671C178.746 84.4671 181.313 84.098 182.964 82.3528C183.147 82.1568 183.248 81.8925 183.239 81.6236C183.23 81.3502 183.115 81.0996 182.914 80.9128ZM178.188 55.9182C178.247 55.9182 178.302 55.9091 178.357 55.9C179.167 55.7451 179.743 54.4965 179.666 53.0474C179.592 51.7077 178.957 50.6915 178.193 50.6915C178.138 50.6915 178.083 50.7006 178.028 50.7097C177.213 50.8647 176.637 52.1178 176.715 53.5623C176.788 54.9021 177.424 55.9182 178.188 55.9182ZM86.926 276.257C92.5715 276.731 97.97 283.713 98.0295 283.781C98.3131 284.155 98.8484 284.232 99.2235 283.945C99.5987 283.662 99.6765 283.129 99.3882 282.756C99.1503 282.441 93.4774 275.105 87.0769 274.562C84.6293 274.357 82.4059 275.164 80.4706 276.964C73.3565 283.58 70.8083 304.109 70.2913 309.026L24.3766 295.533C23.9237 295.401 23.4479 295.656 23.3152 296.107C23.1826 296.558 23.4388 297.028 23.8917 297.164L70.8037 310.949C70.8815 310.972 70.9638 310.985 71.0416 310.985C71.2109 310.985 71.3801 310.935 71.5265 310.835C71.7416 310.689 71.8742 310.461 71.8971 310.206C71.9154 309.956 74.18 285.143 81.6418 278.208C83.2248 276.731 84.9541 276.089 86.926 276.257ZM126.426 309.299C120.346 308.092 107.98 305.253 107.857 305.221C107.399 305.116 106.937 305.403 106.832 305.864C106.722 306.319 107.01 306.775 107.472 306.88C107.591 306.912 119.989 309.755 126.088 310.967C126.147 310.976 126.202 310.985 126.257 310.985C126.655 310.985 127.017 310.703 127.094 310.302C127.19 309.842 126.889 309.391 126.426 309.299ZM105.729 328.129C106.2 328.124 106.585 327.741 106.58 327.272C106.576 326.807 106.196 326.429 105.725 326.429C105.629 326.411 105.51 326.429 105.404 326.429C92.6722 326.429 84.6934 321.589 84.6156 321.544C84.213 321.293 83.6869 321.412 83.4352 321.813C83.1882 322.209 83.3071 322.733 83.7097 322.984C84.0529 323.193 92.1506 328.129 105.395 328.129C105.505 328.129 105.619 328.129 105.729 328.129ZM109.078 316.659C99.3654 315.492 87.141 311.136 87.022 311.09C86.5783 310.931 86.0842 311.159 85.924 311.601C85.7639 312.043 85.9927 312.53 86.4364 312.69C86.5645 312.735 98.9673 317.16 108.872 318.349C108.904 318.349 108.941 318.354 108.977 318.354C109.403 318.354 109.769 318.035 109.824 317.602C109.883 317.137 109.545 316.714 109.078 316.659ZM106.42 334.677C101.337 334.677 87.0037 329.486 86.8619 329.432C86.4181 329.272 85.924 329.5 85.7639 329.942C85.5992 330.38 85.828 330.872 86.2717 331.031C86.8711 331.25 101.035 336.376 106.42 336.376C106.891 336.376 107.276 335.994 107.276 335.524C107.276 335.055 106.891 334.677 106.42 334.677ZM216.321 198.549L213.008 216.918L200.368 220.322C198.245 220.891 195.994 220.057 194.768 218.239L192.892 215.45C192.627 215.063 192.096 214.958 191.702 215.218C191.309 215.478 191.204 216.006 191.469 216.398L193.349 219.182C194.64 221.101 196.781 222.199 199.022 222.199C199.622 222.199 200.226 222.122 200.816 221.962L213.983 218.417C214.298 218.33 214.541 218.066 214.6 217.747L218.004 198.85C218.086 198.385 217.78 197.943 217.313 197.861C216.847 197.774 216.403 198.084 216.321 198.549ZM240.577 279.561C240.989 279.794 241.51 279.643 241.739 279.229C241.968 278.818 241.817 278.303 241.405 278.076C235.879 275.023 228.101 274.895 226.024 274.927C225.045 273.177 224.821 271.673 225.365 270.466C226.454 268.032 230.27 267.299 230.306 267.294C230.311 267.294 230.315 267.294 230.325 267.289C230.375 267.28 235.604 266.273 242.888 270.292C243.299 270.525 243.821 270.375 244.05 269.964C244.278 269.55 244.132 269.035 243.716 268.807C237.658 265.462 232.937 265.348 230.97 265.499C229.725 233.277 229.428 151.959 242.462 147.639C242.91 147.493 243.148 147.01 243.002 146.564C242.851 146.122 242.371 145.88 241.918 146.026C234.639 148.437 230.315 169.521 229.071 208.688C228.234 235.086 229.103 261.233 229.268 265.795C227.886 266.178 224.931 267.262 223.805 269.764C223.069 271.4 223.243 273.282 224.327 275.378L177.607 295.132C180.082 263.826 182.781 230.757 183.966 220.199C187.85 185.539 205.652 133.809 207.422 128.724L210.597 127.717L216.147 137.769L264.431 122.654L256.86 100.886C256.86 100.886 253.456 101.346 248.464 102.061C235.636 103.898 212.203 100.111 209.133 101.742C208.017 102.335 199.791 111.909 199.791 111.909C199.791 111.909 194.873 113.454 192.65 116.516C190.426 119.578 187.859 129.945 187.859 129.945L193.825 129.097L195.66 132.41C195.66 132.41 147.847 200.317 149.553 217.843C151.26 235.373 159.11 251.527 159.11 251.527L160.716 302.273L143.903 309.381C143.468 309.564 143.267 310.065 143.45 310.493C143.587 310.817 143.908 311.013 144.237 311.013C144.347 311.013 144.466 310.99 144.571 310.944L225.727 276.636C226.939 276.613 235.115 276.545 240.577 279.561ZM252.632 140.125C252.166 140.189 251.841 140.617 251.9 141.082C251.964 141.551 252.399 141.879 252.866 141.811C253.026 141.788 269.024 139.751 280.178 149.043C286.899 154.639 290.541 163.197 291.007 174.479C291.026 174.93 291.405 175.29 291.863 175.29C291.872 175.29 291.886 175.29 291.895 175.29C292.371 175.272 292.737 174.876 292.718 174.406C292.233 162.627 288.386 153.654 281.281 147.74C269.551 137.97 253.319 140.034 252.632 140.125ZM297.248 201.771C296.781 201.698 296.342 202.008 296.259 202.472C296.246 202.577 294.672 211.705 291.305 217.341C292.192 201.11 292.663 188.984 292.718 187.549C292.737 187.075 292.371 186.683 291.895 186.664C291.437 186.637 291.026 187.015 291.007 187.48C290.966 188.546 286.858 294.148 279.254 311.031C271.769 327.659 158.236 347.29 157.093 347.486C156.626 347.568 156.315 348.01 156.397 348.47C156.466 348.885 156.827 349.177 157.239 349.177C157.285 349.177 157.335 349.172 157.385 349.163C157.88 349.081 159.568 348.785 162.171 348.32L162.532 359.781H172.602C172.602 359.781 172.995 354.577 173.64 346.187C205.83 340.013 274.688 325.34 280.819 311.728C285.838 300.578 289.283 253.437 291.126 220.522C295.825 215.095 297.865 203.261 297.952 202.75C298.025 202.285 297.714 201.848 297.248 201.771ZM217.295 191.777L194.48 188.232C194.013 188.159 193.574 188.478 193.5 188.938C193.427 189.403 193.748 189.841 194.214 189.909L217.03 193.459C217.075 193.463 217.121 193.468 217.167 193.468C217.579 193.468 217.94 193.167 218.009 192.748C218.082 192.288 217.762 191.85 217.295 191.777ZM296.017 153.659C295.967 153.545 295.903 153.44 295.852 153.326C296.031 153.709 296.223 154.083 296.401 154.461C296.273 154.192 296.145 153.923 296.017 153.659ZM107.166 68.7596C107.472 71.7625 110.153 74.1959 113.159 74.1959C116.165 74.1959 118.352 71.7625 118.045 68.7596C117.743 65.7611 115.058 63.3277 112.052 63.3277C109.051 63.3277 106.864 65.7611 107.166 68.7596ZM84.3319 176.881C83.8607 176.881 83.4764 177.259 83.4764 177.728C83.4764 178.198 83.8607 178.581 84.3319 178.581H92.3748C92.846 178.581 93.2303 178.198 93.2303 177.728C93.2303 177.259 92.846 176.881 92.3748 176.881H84.3319ZM83.0784 164.295H98.7112C99.1824 164.295 99.5621 163.912 99.5621 163.443C99.5621 162.978 99.1824 162.595 98.7112 162.595H83.0784C82.6072 162.595 82.2229 162.978 82.2229 163.443C82.2229 163.912 82.6072 164.295 83.0784 164.295ZM83.0784 157.323H105.139C105.615 157.323 105.995 156.944 105.995 156.475C105.995 156.006 105.615 155.623 105.139 155.623H83.0784C82.6072 155.623 82.2229 156.006 82.2229 156.475C82.2229 156.944 82.6072 157.323 83.0784 157.323ZM75.2231 94.2736C74.7565 94.2371 74.3447 94.588 74.3081 95.0574C74.2715 95.5267 74.6238 95.9323 75.095 95.9687L87.3789 96.8847C87.3972 96.8847 87.4201 96.8847 87.4429 96.8847C87.8867 96.8847 88.2619 96.5429 88.2985 96.0963C88.3305 95.6315 87.9736 95.2214 87.5024 95.185L75.2231 94.2736ZM91.4644 92.6513C91.9081 92.6513 92.2833 92.3096 92.3153 91.863C92.3519 91.3982 91.9951 90.9881 91.5284 90.9516L74.7611 89.7076C74.2898 89.662 73.8781 90.022 73.8415 90.4914C73.8049 90.9607 74.1572 91.3663 74.633 91.4027L91.4003 92.6513C91.4186 92.6513 91.4461 92.6513 91.4644 92.6513ZM73.4755 78.7619L85.7959 79.8647C85.8234 79.8692 85.8463 79.8738 85.8737 79.8738C86.3129 79.8738 86.6881 79.5366 86.7247 79.0946C86.7658 78.6298 86.4227 78.2151 85.9515 78.1741L73.631 77.0668C73.169 77.0349 72.7435 77.3721 72.7023 77.8414C72.6566 78.3062 73.0043 78.7209 73.4755 78.7619ZM86.3907 75.4491C86.8116 75.4491 87.1776 75.1392 87.2325 74.7109C87.2965 74.246 86.9671 73.8177 86.5005 73.7585L72.9814 71.9676C72.5102 71.9084 72.0847 72.2365 72.0206 72.7013C71.9566 73.1661 72.286 73.5944 72.7572 73.6582L86.2717 75.44C86.3129 75.4491 86.3495 75.4491 86.3907 75.4491ZM127.067 143.119L124.903 124.527L108.904 124.071L111.434 142.823L127.067 143.119ZM81.0059 142.248L90.499 142.426L85.6221 101.669L77.044 100.908L81.0059 142.248ZM122.62 104.955L106.132 103.492L107.161 111.143L123.48 112.355L122.62 104.955ZM108.675 122.367L124.702 122.818L123.681 114.073L107.394 112.861L108.675 122.367ZM89.9592 123.533L92.2238 142.458L109.705 142.791L107.175 124.025L89.9592 123.533ZM106.942 122.317L105.651 112.734L88.5135 111.458L89.7533 121.829L106.942 122.317ZM88.3076 109.74L105.418 111.011L104.38 103.333L87.3606 101.824L88.3076 109.74ZM124.235 104.071L128.879 143.889C128.906 144.135 128.828 144.377 128.664 144.559C128.499 144.737 128.27 144.837 128.032 144.837C128.023 144.837 128.019 144.837 128.014 144.837L80.2099 143.93C79.7752 143.925 79.4138 143.593 79.3727 143.16L75.2414 100.047C75.2186 99.8011 75.3055 99.5459 75.4885 99.3682C75.6669 99.1905 75.9231 99.1039 76.1702 99.1221L123.466 103.324C123.869 103.36 124.189 103.674 124.235 104.071ZM72.7709 69.5752L92.2787 71.8491C92.3107 71.8537 92.3428 71.8582 92.3748 71.8582C92.8048 71.8582 93.1754 71.5347 93.2257 71.1064C93.2806 70.637 92.9421 70.2178 92.4754 70.1631L72.9677 67.8892C72.501 67.8299 72.0755 68.1672 72.0206 68.632C71.9657 69.1013 72.2997 69.5206 72.7709 69.5752ZM106.406 54.1957C104.869 52.0677 101.319 51.5573 101.319 51.5573C101.319 51.5573 99.5758 45.8566 95.2845 44.7584C89.9775 43.3959 90.1513 49.2697 90.1513 49.2697C90.1513 49.2697 84.277 48.6318 82.8817 50.368C81.4817 52.1041 81.3125 56.9846 81.3125 56.9846L109.65 60.3886C109.65 60.3886 107.87 56.2144 106.406 54.1957ZM167.739 24.6808C165.799 19.5178 166.096 13.4754 171.426 7.03195C183.966 -8.12425 195.724 6.05678 210.616 5.27755C225.507 4.49832 246.666 9.17369 253.529 19.8824C260.387 30.5911 243.926 74.205 243.926 74.205C243.926 74.205 248.039 83.9385 256.86 81.9928C256.86 82.9679 249.997 91.143 237.654 87.2514C227.099 97.55 209.957 90.66 205.647 81.7011C201.337 72.7468 183.934 46.6176 184.236 48.2672C184.323 48.732 184.017 49.1741 183.554 49.2606C183.5 49.2697 183.449 49.2743 183.394 49.2743C182.992 49.2743 182.63 48.9872 182.557 48.5771C181.912 45.1093 178.559 43.6283 178.527 43.6147C178.092 43.4278 177.895 42.9266 178.083 42.4982C178.179 42.284 178.348 42.1245 178.554 42.0471C175.955 39.4907 174.757 36.0411 174.757 36.0411V44.4167C168.805 39.8962 167.839 29.6797 167.739 24.6808Z" fill="#003A70"/>
<path d="M117.976 104.545C119.536 106.477 121.353 108.291 123.164 109.648C123.791 110.118 124.418 110.533 125.031 110.883C125.612 111.211 126.184 111.485 126.733 111.676C126.733 111.676 126.687 119.036 129.318 126.071C130.42 129.024 131.994 131.909 134.231 134.183L136.391 151.649L149.553 141.743C149.553 141.743 143.793 119.049 141.871 113.504C139.95 107.958 129.487 95.7454 129.487 95.7454L130.452 103.547C129.469 102.658 127.826 101.205 125.937 99.6643C121.376 95.9505 115.41 91.7718 113.964 93.991C112.829 95.7317 114.193 99.2451 116.604 102.717C117.029 103.328 117.491 103.943 117.976 104.545ZM144.237 311.013C143.907 311.013 143.587 310.817 143.45 310.493C143.331 310.215 143.386 309.915 143.546 309.682C140.728 307.732 129.89 300.299 125.228 297.889C118.068 294.184 103.611 296.358 103.611 296.358L107.033 305.499C107.234 305.271 107.541 305.153 107.856 305.221C107.98 305.253 120.346 308.092 126.426 309.299C126.888 309.39 127.19 309.842 127.094 310.302C127.016 310.703 126.655 310.985 126.257 310.985C126.202 310.985 126.147 310.976 126.088 310.967C119.989 309.755 107.591 306.912 107.472 306.88C107.225 306.825 107.033 306.665 106.919 306.456C104.53 306.137 94.0811 304.861 90.1512 306.365C87.1134 307.522 86.665 309.81 86.6605 311.045C86.7794 311.035 86.9029 311.049 87.0219 311.09C87.1408 311.136 99.3652 315.492 109.078 316.659C109.545 316.713 109.883 317.137 109.824 317.602C109.769 318.035 109.403 318.354 108.977 318.354C108.941 318.354 108.904 318.349 108.872 318.349C98.9672 317.16 86.5644 312.735 86.4363 312.69C86.1664 312.589 85.9879 312.362 85.9193 312.102C84.103 312.626 79.862 314.207 79.9718 317.502C80.0313 319.302 82.2547 321.024 83.4397 321.813C83.6913 321.412 84.2128 321.293 84.6154 321.544C84.6932 321.589 92.672 326.429 105.404 326.429C105.509 326.429 105.628 326.41 105.724 326.429C106.196 326.429 106.575 326.807 106.58 327.272C106.585 327.741 106.2 328.124 105.729 328.128C105.619 328.128 105.505 328.128 105.395 328.128C92.823 328.128 84.8991 323.69 83.8331 323.057C83.5037 324 83.1011 325.64 83.5632 327.281C83.7645 327.996 84.835 328.771 86.1618 329.491C86.3722 329.382 86.6239 329.345 86.8618 329.432C87.0036 329.486 101.337 334.677 106.42 334.677C106.891 334.677 107.275 335.055 107.275 335.524C107.275 335.994 106.891 336.376 106.42 336.376C103.172 336.376 96.7346 334.513 92.0041 332.981L91.8897 333.196C91.0891 334.695 91.8943 336.545 93.5413 336.987L112.958 342.555C115.263 343.216 117.619 343.667 119.989 343.923C124.285 344.387 128.641 344.196 132.9 343.316L150.18 339.767L154.055 338.974L144.507 310.958C144.42 310.985 144.328 311.013 144.237 311.013ZM199.228 113.039L199.855 131.093L202.216 130.35C202.28 129.899 203.446 122.107 205.382 116.019C205.231 116.137 205.084 116.261 204.924 116.374L199.228 113.039ZM184.236 48.2672C183.426 43.9199 179.382 42.1291 179.208 42.0516C178.773 41.8693 178.27 42.0653 178.083 42.4982C177.895 42.9265 178.092 43.4278 178.526 43.6146C178.558 43.6283 181.912 45.1093 182.557 48.5771C182.63 48.9872 182.992 49.2743 183.394 49.2743C183.449 49.2743 183.499 49.2697 183.554 49.2606C184.016 49.174 184.323 48.732 184.236 48.2672ZM182.795 81.0358C182.452 80.7122 181.912 80.7305 181.587 81.0768C179.391 83.4054 174.4 82.3664 174.354 82.3527C173.896 82.257 173.434 82.5441 173.334 83.0044C173.233 83.4646 173.526 83.9157 173.988 84.016C174.098 84.0433 175.315 84.294 176.884 84.294C178.805 84.294 181.258 83.9112 182.836 82.2388C183.161 81.8925 183.143 81.3548 182.795 81.0358ZM176.889 53.5532C176.962 54.8929 177.607 55.8681 178.325 55.7359C179.043 55.5992 179.569 54.4008 179.496 53.0565C179.423 51.7168 178.778 50.7416 178.06 50.8783C177.341 51.015 176.815 52.2135 176.889 53.5532ZM211.992 108.163C201.25 111.034 185.041 105.561 185.032 105.561C182.717 104.805 180.247 103.87 177.73 102.717C172.309 100.229 171.98 88.4316 173.16 75.2349C166.961 68.3995 174.757 61.4229 175.667 55.016C176.436 49.616 177.149 44.7083 177.515 40.9033C177.611 39.9463 177.685 39.0486 177.73 38.2421C177.749 37.9413 177.79 37.6497 177.822 37.3535C180.974 39.8643 183.605 41.2997 183.765 41.3316C193.162 43.1179 200.033 36.8203 200.033 36.8203L198.382 42.6714C196.598 49.0054 197.092 55.7587 199.791 61.7602L202.939 60.7212C204.352 57.3673 207.683 55.016 211.572 55.016C216.741 55.016 220.927 59.181 220.927 64.3211C220.927 69.2745 217.03 73.3119 212.116 73.5944C212.752 75.4399 213.484 77.3037 214.339 79.0718C218.649 88.0306 226.486 89.5891 226.486 89.5891L225.31 83.3552C225.31 83.3552 225.31 83.3552 237.654 87.2514C239.479 87.8255 241.176 88.1309 242.755 88.2402L248.469 102.057C237.617 103.615 219.248 106.363 211.992 108.163ZM198.446 108.591C196.694 108.391 191.455 107.662 185.046 105.565C191.46 107.662 196.698 108.391 198.446 108.591ZM198.473 108.596C198.72 108.623 198.894 108.637 198.986 108.646C198.894 108.637 198.72 108.623 198.473 108.596Z" fill="#E55A59"/>
<path d="M214.363 94.5977L214.097 92.5927C206.791 106.45 185.041 105.562 185.032 105.562C185.037 105.562 185.037 105.566 185.046 105.566C191.456 107.662 196.694 108.391 198.446 108.592C198.455 108.592 198.464 108.592 198.474 108.596C198.721 108.624 198.895 108.637 198.986 108.647C199.009 108.651 199.013 108.651 199.027 108.656C199.046 108.656 199.073 108.656 199.073 108.656L199.196 112.119L199.229 113.039L199.48 120.308L204.924 116.375C205.085 116.261 205.231 116.138 205.382 116.02C206.457 112.657 207.761 109.822 209.252 109.034C209.724 108.783 210.675 108.487 211.993 108.164C214.106 104.053 214.98 99.3369 214.363 94.5977ZM136.391 151.65L134.232 134.183C131.994 131.909 130.421 129.025 129.318 126.072L137.178 187.513H80.0225L66.9426 52.8839L81.5048 54.8115C81.6146 53.9502 81.793 52.966 82.0583 52.091L64.9021 49.8171C62.7793 49.5346 60.9448 51.2845 61.1369 53.4034L73.7273 193.017C73.8783 194.731 75.3194 196.039 77.0487 196.039H138.102C139.69 196.039 140.984 194.936 141.327 193.496C141.419 193.118 141.465 192.726 141.41 192.32L136.391 151.65ZM120.863 60.0246L125.937 99.6649C127.827 101.205 129.469 102.659 130.453 103.547L129.487 95.746L125.109 60.298C124.926 58.7988 123.746 57.614 122.241 57.418L107.193 55.4221C107.761 56.3882 108.314 57.4955 108.758 58.4206L120.863 60.0246ZM175.667 55.0166C174.757 61.4235 173.764 68.5095 173.16 75.2355C171.664 74.5018 168.288 72.6335 167.624 70.3368C166.773 67.3703 175.667 55.0166 175.667 55.0166Z" fill="#F67457"/>
</svg>
